<svg xmlns="http://www.w3.org/2000/svg" viewBox="0 0 32 32" enable-background="new 0 0 32 32"><path fill="#8361B4" d="M0 0h32v32h-32v-32z"/><circle fill="#FDE135" stroke="#fff" stroke-width=".5" stroke-miterlimit="10" cx="16" cy="16" r="14"/><circle fill="#CAA61F" stroke="#fff" stroke-width=".5" stroke-miterlimit="10" cx="16" cy="16" r="9.6"/><path stroke="#CAA61F" stroke-width=".5" stroke-linecap="round" stroke-miterlimit="10" d="M7.9 24.6c-2.3-2.2-3.8-5.2-3.8-8.6 0-2 .5-3.9 1.4-5.5m20.9-.1c.9 1.7 1.4 3.5 1.4 5.5 0 3.4-1.4 6.5-3.7 8.6" fill="none"/><path fill="#FDE135" stroke="#fff" stroke-width=".25" stroke-linecap="round" stroke-linejoin="round" stroke-miterlimit="10" d="M16 9.6l1.5 4.6h4.9l-3.9 2.9 1.5 4.6-4-2.9-3.9 2.9 1.5-4.6-3.9-2.9h4.9l1.4-4.6z"/><circle fill="#CAA61F" stroke="#fff" stroke-width=".25" stroke-linecap="round" stroke-linejoin="round" stroke-miterlimit="10" cx="16" cy="9.6" r=".4"/><circle fill="#CAA61F" stroke="#fff" stroke-width=".25" stroke-linecap="round" stroke-linejoin="round" stroke-miterlimit="10" cx="19.9" cy="21.7" r=".4"/><circle fill="#CAA61F" stroke="#fff" stroke-width=".25" stroke-linecap="round" stroke-linejoin="round" stroke-miterlimit="10" cx="12" cy="21.7" r=".4"/><circle fill="#CAA61F" stroke="#fff" stroke-width=".25" stroke-linecap="round" stroke-linejoin="round" stroke-miterlimit="10" cx="9.6" cy="14.3" r=".4"/><circle fill="#CAA61F" stroke="#fff" stroke-width=".25" stroke-linecap="round" stroke-linejoin="round" stroke-miterlimit="10" cx="22.4" cy="14.3" r=".4"/><circle fill="#CAA61F" stroke="#fff" stroke-width=".25" stroke-linecap="round" stroke-linejoin="round" stroke-miterlimit="10" cx="17.5" cy="14.2" r=".4"/><circle fill="#CAA61F" stroke="#fff" stroke-width=".25" stroke-linecap="round" stroke-linejoin="round" stroke-miterlimit="10" cx="14.5" cy="14.2" r=".4"/><circle fill="#CAA61F" stroke="#fff" stroke-width=".25" stroke-linecap="round" stroke-linejoin="round" stroke-miterlimit="10" cx="13.5" cy="17.1" r=".4"/><circle fill="#CAA61F" stroke="#fff" stroke-width=".25" stroke-linecap="round" stroke-linejoin="round" stroke-miterlimit="10" cx="18.5" cy="17.1" r=".4"/><circle fill="#CAA61F" stroke="#fff" stroke-width=".25" stroke-linecap="round" stroke-linejoin="round" stroke-miterlimit="10" cx="16" cy="19" r=".4"/></svg>